<svg xmlns="http://www.w3.org/2000/svg" xmlns:svgjs="http://svgjs.com/svgjs" xmlns:xlink="http://www.w3.org/1999/xlink" width="288" height="288"><svg xmlns="http://www.w3.org/2000/svg" width="288" height="288" enable-background="new 0 0 64 64" viewBox="0 0 64 64"><path fill="#0e75bb" d="M20.68 41.38c.1-.12.17-.25.25-.39l4.3 1c0 .04 0 .08 0 .12.1.86.52 1.64 1.2 2.18.58.47 1.29.71 2.03.71.12 0 .25-.01.37-.02.86-.1 1.64-.52 2.18-1.2.82-1.02.91-2.38.36-3.48l3.52-3.38c.49.27 1.03.4 1.56.4.96 0 1.91-.42 2.55-1.22.54-.68.79-1.53.69-2.39-.1-.86-.52-1.64-1.2-2.18-.68-.54-1.53-.79-2.39-.69-.86.1-1.64.52-2.18 1.2-.82 1.02-.91 2.38-.36 3.48l-3.53 3.39c-1.36-.75-3.1-.44-4.1.82-.1.12-.17.26-.25.39l-4.3-1c-.07-.87-.47-1.71-1.2-2.3-.68-.54-1.53-.79-2.39-.69-.86.1-1.64.52-2.18 1.2-.54.68-.79 1.53-.69 2.39.1.86.52 1.64 1.2 2.18.58.47 1.29.71 2.02.71.12 0 .25-.01.37-.02C19.36 42.48 20.13 42.05 20.68 41.38zM35.43 33.24C35.43 33.24 35.43 33.24 35.43 33.24c.22-.27.53-.45.88-.49.05-.01.1-.01.15-.01.3 0 .58.1.82.29.27.22.45.53.49.88.04.35-.06.69-.28.97-.22.27-.53.45-.88.49-.35.04-.69-.06-.97-.28C35.07 34.64 34.97 33.81 35.43 33.24zM27.44 40.92c.22-.27.53-.45.88-.49.05-.01.1-.01.15-.01.3 0 .58.1.82.29.57.45.66 1.28.21 1.85-.22.27-.53.45-.88.49-.35.04-.69-.06-.97-.28-.27-.22-.45-.53-.49-.88C27.12 41.54 27.22 41.2 27.44 40.92zM19.16 40.16c-.22.27-.53.45-.88.49-.35.04-.69-.06-.97-.28-.27-.22-.45-.53-.49-.88-.04-.35.06-.69.28-.97.22-.27.53-.45.88-.49.05-.01.1-.01.15-.01.3 0 .58.1.82.29.27.22.45.53.49.88C19.48 39.55 19.38 39.89 19.16 40.16zM56.35 22.35c.01-.02.02-.04.03-.06 1.8-4.63-.5-9.85-5.13-11.65-2.24-.87-4.69-.82-6.89.15-2.2.97-3.89 2.74-4.76 4.98-.87 2.24-.82 4.69.15 6.89.97 2.2 2.74 3.89 4.98 4.76 1.01.39 2.05.58 3.07.6.01 0 .03.01.04.01.01 0 .01 0 .02 0 .04 0 .08.01.12.01 3.57 0 6.95-2.14 8.35-5.64C56.34 22.38 56.34 22.36 56.35 22.35zM48.52 26.06c-.36-1.11-.39-2.23-.06-3.14.64.11 1.3-.02 1.86-.39.55-.37.93-.94 1.08-1.57.97.05 2 .51 2.89 1.27C53.14 24.47 50.92 25.88 48.52 26.06zM54.94 20.27c-1.45-1.01-3.13-1.45-4.64-1.18-.52.1-.87.6-.78 1.12.05.29-.05.55-.27.7-.21.14-.5.14-.72-.01-.22-.14-.48-.2-.73-.14-.25.05-.47.2-.62.42-.84 1.29-1.08 3.01-.71 4.74-.35-.08-.69-.17-1.03-.3-1.76-.68-3.14-2.01-3.91-3.74-.76-1.73-.8-3.65-.12-5.4.68-1.76 2.01-3.15 3.74-3.91 1.73-.76 3.65-.8 5.4-.12C53.74 13.69 55.52 17.02 54.94 20.27z" class="color010101 svgShape"/><path fill="#0e75bb" d="M49.38,16.45c-0.79-1.18-2.4-1.51-3.58-0.72c-1.19,0.79-1.51,2.4-0.72,3.58c0.5,0.75,1.32,1.15,2.16,1.15
		c0.49,0,0.99-0.14,1.43-0.43C49.84,19.25,50.17,17.64,49.38,16.45L49.38,16.45z M47.58,18.42c-0.3,0.2-0.7,0.12-0.89-0.18
		c-0.1-0.14-0.13-0.31-0.1-0.48c0.03-0.17,0.13-0.31,0.27-0.41c0.11-0.07,0.23-0.11,0.36-0.11c0.21,0,0.41,0.1,0.54,0.29
		C47.96,17.83,47.88,18.23,47.58,18.42z" class="color010101 svgShape"/><path fill="#0e75bb" d="M63.09,35.62l-6.44-7.88c1.77-1.73,2.99-3.94,3.51-6.42c0.69-3.3,0.06-6.68-1.79-9.5
		c-1.85-2.82-4.68-4.76-7.98-5.45c-3.3-0.69-6.68-0.06-9.5,1.79c-1.49,0.98-2.71,2.22-3.63,3.62H5.45c-0.03,0-0.05,0-0.07,0
		C2.41,11.77,0,14.18,0,17.14v3.72c0,0.54,0.43,0.97,0.97,0.97H8.8L8.69,53.01c-0.01,2.67,2.09,4.87,4.74,4.89h0.52
		c0.1,0,0.2,0,0.29-0.01c0.05,0.01,0.1,0.01,0.15,0.01h0l30.35-0.03c0.13,0,0.24-0.01,0.43-0.02c2.4-0.22,4.28-2.28,4.28-4.69V48.9
		c0-0.54-0.43-0.97-0.97-0.97h-2.43V31.22c0.58,0.08,1.16,0.13,1.75,0.13c1.38,0,2.77-0.23,4.11-0.7l5.3,9.06
		c0.49,0.91,1.34,1.57,2.35,1.8c0.27,0.06,0.55,0.1,0.83,0.1c0.74,0,1.47-0.23,2.09-0.67c0.84-0.6,1.39-1.54,1.5-2.56
		C64.09,37.37,63.75,36.34,63.09,35.62z M8.81,19.89H1.94v-2.75c0-1.89,1.53-3.43,3.42-3.43c0,0,0.01,0,0.01,0h0.04
		c1.88,0.02,3.4,1.55,3.4,3.43V19.89z M17.75,48.9v3.27c0,2.09-1.7,3.79-3.8,3.79H13.4c-1.53-0.02-2.77-1.34-2.77-2.95l0.11-32.15
		c0,0,0,0,0,0v-3.72c0-1.3-0.47-2.5-1.24-3.43h26.7c-1.62,3.76-1.39,8.24,1.01,11.93c1.69,2.58,4.17,4.32,6.91,5.15v17.15h-25.4
		C18.19,47.93,17.75,48.37,17.75,48.9z M47.52,49.87v3.29c0,1.42-1.11,2.63-2.53,2.76c-0.08,0.01-0.16,0.01-0.24,0.01l-26.49,0.03
		c0.89-1.01,1.44-2.34,1.44-3.79v-2.3H47.52z M38.84,24.58C35.61,19.64,37,13,41.94,9.78c1.76-1.15,3.77-1.75,5.83-1.75
		c0.74,0,1.48,0.08,2.21,0.23c2.8,0.59,5.2,2.23,6.76,4.62c0,0,0,0,0,0c1.56,2.39,2.1,5.25,1.52,8.04c-0.59,2.8-2.23,5.2-4.62,6.76
		C48.7,30.9,42.06,29.51,38.84,24.58z M62.05,38.19c-0.05,0.48-0.3,0.91-0.69,1.19c-0.4,0.28-0.88,0.37-1.35,0.26
		c-0.47-0.11-0.86-0.41-1.1-0.86l-5.2-8.89c0.34-0.18,0.67-0.37,0.99-0.58c0.16-0.1,0.3-0.22,0.45-0.33l6.47,7.91
		C61.95,37.24,62.1,37.71,62.05,38.19z" class="color010101 svgShape"/></svg></svg>