<svg xmlns="http://www.w3.org/2000/svg" viewBox="0 0 32 32"><path fill="#0e75bb" d="M17 32h-2a3 3 0 0 1-3-3 1 1 0 0 0-.64-.9q-.36-.1-.66-.24a1 1 0 0 0-1.09.14 3 3 0 0 1-4.19 0L4 26.58a3 3 0 0 1 0-4.19 1 1 0 0 0 .18-1.09q-.18-.3-.31-.66A1 1 0 0 0 3 20a3 3 0 0 1-3-3v-2a3 3 0 0 1 3-3 1 1 0 0 0 .9-.64q.1-.36.24-.66A1 1 0 0 0 4 9.61a3 3 0 0 1 0-4.19L5.42 4a3 3 0 0 1 4.19 0 1 1 0 0 0 1.09.18l.66-.27A1 1 0 0 0 12 3a3 3 0 0 1 3-3h2a3 3 0 0 1 3 3 1 1 0 0 0 .64.9l.66.27A1 1 0 0 0 22.39 4a3 3 0 0 1 4.19 0L28 5.42a3 3 0 0 1 0 4.19 1 1 0 0 0-.18 1.09q.15.33.27.66A1 1 0 0 0 29 12a3 3 0 0 1 3 3v2a3 3 0 0 1-3 3 1 1 0 0 0-.9.64q-.12.33-.27.66a1 1 0 0 0 .17 1.09 3 3 0 0 1 0 4.19L26.58 28a1 1 0 0 1-1.41 0 1 1 0 0 1 0-1.41l1.46-1.46a1 1 0 0 0 0-1.37 3 3 0 0 1-.6-3.32c.09-.18.16-.37.24-.56A3 3 0 0 1 29 18a1 1 0 0 0 1-1v-2a1 1 0 0 0-1-1 3 3 0 0 1-2.77-1.92 5.48 5.48 0 0 0-.23-.56 3 3 0 0 1 .6-3.32 1 1 0 0 0 0-1.37l-1.43-1.46a1 1 0 0 0-1.37 0 3 3 0 0 1-3.32.6c-.18-.09-.37-.16-.56-.24A3 3 0 0 1 18 3a1 1 0 0 0-1-1h-2a1 1 0 0 0-1 1 3 3 0 0 1-1.92 2.77 5.48 5.48 0 0 0-.56.23 3 3 0 0 1-3.32-.6 1 1 0 0 0-1.37 0L5.37 6.83a1 1 0 0 0 0 1.37A3 3 0 0 1 6 11.52c-.09.18-.16.37-.24.56A3 3 0 0 1 3 14a1 1 0 0 0-1 1v2a1 1 0 0 0 1 1 3 3 0 0 1 2.77 1.92 5.48 5.48 0 0 0 .23.56 3 3 0 0 1-.6 3.32 1 1 0 0 0 0 1.37l1.46 1.46a1 1 0 0 0 1.37 0 3 3 0 0 1 3.32-.6c.18.09.37.16.56.24A3 3 0 0 1 14 29a1 1 0 0 0 1 1h2a1 1 0 0 0 1-1 3 3 0 0 1 1.92-2.77 5.48 5.48 0 0 0 .56-.23 1 1 0 1 1 .82 1.83q-.33.15-.66.27a1 1 0 0 0-.64.9 3 3 0 0 1-3 3Z"/><path fill="#0e75bb" d="M11 20a1 1 0 0 1-.71-.29l-3-3a1 1 0 0 1 0-1.42l3-3a1 1 0 0 1 1.42 1.42L9.41 16l2.3 2.29A1 1 0 0 1 11 20zm10 0a1 1 0 0 1-.71-1.71l2.3-2.29-2.3-2.29a1 1 0 0 1 1.42-1.42l3 3a1 1 0 0 1 0 1.42l-3 3A1 1 0 0 1 21 20zm-6 2a1 1 0 0 1-1-1.2l2-10a1 1 0 0 1 2 .4l-2 10a1 1 0 0 1-1 .8z"/></svg>