<svg xmlns="http://www.w3.org/2000/svg" xmlns:svgjs="http://svgjs.com/svgjs" xmlns:xlink="http://www.w3.org/1999/xlink" width="288" height="288"><svg xmlns="http://www.w3.org/2000/svg" width="288" height="288" viewBox="0 0 64 64"><path fill="#0e75bb" d="M46.33 25.66H23.86l-.51-2.83c-.12-.68-.72-1.18-1.41-1.18h-4.27a1.43 1.43 0 1 0 0 2.86h3.07l2.58 14.23c.02.1.21 1 .74 2.04 1.03 2.05 3.11 3.32 5.42 3.32h14.26a1.43 1.43 0 1 0 0-2.86H29.49c-1.21 0-2.33-.68-2.86-1.74-.1-.21-.19-.41-.26-.58h15.85c1.68 0 3.07-.71 3.9-2.01.36-.56.58-1.2.67-1.93l.96-7.73c.05-.41-.08-.82-.35-1.13-.27-.29-.66-.46-1.07-.46zm-2.38 8.98c-.04.29-.12.54-.24.73-.3.47-.77.69-1.49.69H25.75l-1.37-7.54H44.7l-.75 6.12zM28.26 44.73c-1.84 0-3.34 1.5-3.34 3.34 0 1.84 1.5 3.34 3.34 3.34 1.84 0 3.34-1.5 3.34-3.34 0-1.84-1.5-3.34-3.34-3.34zm0 3.82a.48.48 0 1 1 0-.96.48.48 0 0 1 0 .96zm12.87-3.82c-1.84 0-3.34 1.5-3.34 3.34 0 1.84 1.5 3.34 3.34 3.34 1.84 0 3.34-1.5 3.34-3.34 0-1.84-1.5-3.34-3.34-3.34zm0 3.82a.48.48 0 1 1 .48-.48c-.01.27-.22.48-.48.48z" class="color000 svgShape"/><path fill="#0e75bb" d="M59.46.65H4.54C2.04.65 0 2.68 0 5.19v53.62c0 2.5 2.04 4.54 4.54 4.54h54.92c2.5 0 4.54-2.04 4.54-4.54V5.19C64 2.68 61.96.65 59.46.65zm1.67 58.16c0 .92-.75 1.68-1.68 1.68H4.54c-.92 0-1.68-.75-1.68-1.68V12.58h58.27v46.23zm0-49.1H2.87V5.19c0-.92.75-1.68 1.68-1.68h54.92c.92 0 1.68.75 1.68 1.68v4.52z" class="color000 svgShape"/><path fill="#0e75bb" d="M7.71 5.18c-.8 0-1.44.64-1.44 1.43s.65 1.43 1.44 1.43a1.43 1.43 0 1 0 0-2.86zm5.31 0c-.8 0-1.44.64-1.44 1.43s.65 1.43 1.44 1.43a1.43 1.43 0 1 0 0-2.86zm5.31 0c-.8 0-1.44.64-1.44 1.43s.65 1.43 1.44 1.43a1.43 1.43 0 1 0 0-2.86zm37.98 0H45.75a1.43 1.43 0 1 0 0 2.86h10.57c.79 0 1.43-.64 1.43-1.43s-.65-1.43-1.44-1.43zM7.04 57.13h49.93c.79 0 1.43-.64 1.43-1.43V17.37c0-.79-.64-1.43-1.43-1.43H7.04c-.79 0-1.43.64-1.43 1.43V55.7c-.01.79.64 1.43 1.43 1.43zM8.47 18.8h47.06v35.46H8.47V18.8z" class="color000 svgShape"/></svg></svg>