<svg width="101" height="80" viewBox="0 0 101 80" fill="none" xmlns="http://www.w3.org/2000/svg">
<g clip-path="url(#clip0_53_1491)">
<path d="M3.47407 76.5067V39.4455H49.8321V37.2782H3.47407V3.4681H52.7634V1.30078H1.30273V78.674H53.1977V76.5067H3.47407ZM94.9959 22.9739L75.7796 48.2232L56.9975 22.9739H54.1748L74.4768 49.8487L52.2206 78.674H54.8262L75.7796 51.4742L96.8415 78.674H99.5557L77.1909 49.8487L97.6015 22.9739H94.9959ZM106.07 97.7464V63.0693H106.287C107.59 68.1264 110.159 72.1901 113.995 75.2604C117.831 78.3308 122.717 79.866 128.652 79.866C132.488 79.866 135.889 79.0894 138.857 77.5361C141.824 75.9829 144.303 73.8698 146.294 71.1967C148.284 68.5237 149.804 65.4172 150.854 61.8773C151.903 58.3373 152.428 54.6168 152.428 50.7156C152.428 46.5254 151.885 42.6604 150.799 39.1205C149.714 35.5805 148.139 32.5101 146.077 29.9094C144.014 27.3086 141.517 25.2858 138.585 23.8409C135.654 22.396 132.343 21.6736 128.652 21.6736C125.829 21.6736 123.205 22.089 120.781 22.9198C118.356 23.7506 116.203 24.9245 114.321 26.4416C112.439 27.9588 110.81 29.7468 109.435 31.8058C108.06 33.8647 107.011 36.1223 106.287 38.5786H106.07V22.9739H103.898V97.7464H106.07ZM128.652 77.807C121.848 77.807 116.384 75.4772 112.258 70.8175C108.132 66.1577 106.07 59.4571 106.07 50.7156C106.07 47.1034 106.576 43.6718 107.59 40.4208C108.603 37.1698 110.069 34.3162 111.987 31.8599C113.905 29.4036 116.275 27.4531 119.098 26.0082C121.92 24.5633 125.105 23.8409 128.652 23.8409C132.271 23.8409 135.437 24.5633 138.151 26.0082C140.865 27.4531 143.109 29.4217 144.882 31.9141C146.656 34.4066 147.995 37.2602 148.899 40.475C149.804 43.6899 150.256 47.1034 150.256 50.7156C150.256 53.9666 149.84 57.1995 149.008 60.4143C148.176 63.6292 146.891 66.5189 145.154 69.0836C143.417 71.6483 141.191 73.7433 138.477 75.3688C135.763 76.9943 132.488 77.807 128.652 77.807ZM164.37 78.674V47.1395C164.37 44.1053 164.804 41.1433 165.673 38.2535C166.541 35.3638 167.88 32.8172 169.69 30.6137C171.499 28.4103 173.797 26.6764 176.584 25.4122C179.37 24.1479 182.682 23.6241 186.518 23.8409V21.6736C183.188 21.6013 180.275 21.9625 177.778 22.7572C175.281 23.5519 173.128 24.6355 171.318 26.0082C169.509 27.3808 168.061 28.9882 166.976 30.8305C165.89 32.6727 165.094 34.6413 164.587 36.7364H164.37V22.9739H162.199V78.674H164.37ZM189.232 51.2574H235.916C236.06 47.4285 235.68 43.7441 234.776 40.2041C233.871 36.6641 232.423 33.5216 230.433 30.7763C228.443 28.031 225.873 25.8276 222.725 24.166C219.576 22.5044 215.831 21.6736 211.488 21.6736C208.376 21.6736 205.336 22.3237 202.368 23.6241C199.401 24.9245 196.795 26.8209 194.552 29.3133C192.308 31.8058 190.499 34.858 189.123 38.4703C187.748 42.0825 187.061 46.2003 187.061 50.824C187.061 54.9419 187.531 58.7888 188.472 62.3649C189.413 65.941 190.86 69.0475 192.815 71.6844C194.769 74.3213 197.284 76.3622 200.36 77.807C203.436 79.2519 207.145 79.9382 211.488 79.866C217.857 79.866 223.213 78.078 227.556 74.5019C231.899 70.9258 234.468 65.8868 235.264 59.3849H233.093C232.152 65.5256 229.745 70.1311 225.873 73.2015C222.001 76.2719 217.134 77.807 211.271 77.807C207.29 77.807 203.925 77.1207 201.174 75.7481C198.424 74.3755 196.18 72.4971 194.443 70.1131C192.706 67.729 191.421 64.9296 190.589 61.7147C189.757 58.4999 189.304 55.0141 189.232 51.2574ZM233.744 49.0901H189.232C189.449 45.1889 190.173 41.6851 191.403 38.5786C192.634 35.4721 194.244 32.8172 196.234 30.6137C198.225 28.4103 200.541 26.7306 203.183 25.5747C205.825 24.4188 208.665 23.8409 211.705 23.8409C215.324 23.8409 218.509 24.5091 221.259 25.8456C224.009 27.1822 226.307 29.0063 228.153 31.3181C229.999 33.6299 231.392 36.321 232.333 39.3914C233.274 42.4617 233.744 45.6946 233.744 49.0901ZM280.971 39.4455H283.142C283.142 33.2325 281.333 28.7173 277.714 25.8998C274.095 23.0823 269.173 21.6736 262.949 21.6736C259.475 21.6736 256.543 22.107 254.155 22.9739C251.766 23.8409 249.812 24.9606 248.292 26.3333C246.772 27.7059 245.687 29.223 245.035 30.8846C244.384 32.5463 244.058 34.1356 244.058 35.6527C244.058 38.687 244.601 41.1071 245.687 42.9133C246.772 44.7194 248.473 46.1281 250.789 47.1395C252.382 47.862 254.191 48.5122 256.218 49.0901C258.244 49.6681 260.596 50.2821 263.274 50.9323C265.663 51.5103 268.015 52.0882 270.331 52.6662C272.647 53.2441 274.692 54.0207 276.465 54.996C278.239 55.9713 279.686 57.2175 280.808 58.7347C281.93 60.2518 282.491 62.2385 282.491 64.6948C282.491 67.0788 281.93 69.1017 280.808 70.7633C279.686 72.4249 278.257 73.7794 276.52 74.827C274.783 75.8745 272.846 76.6331 270.711 77.1027C268.576 77.5723 266.495 77.807 264.469 77.807C257.882 77.807 252.834 76.3441 249.324 73.4182C245.813 70.4923 244.058 65.8868 244.058 59.6016H241.887C241.887 66.6093 243.787 71.7385 247.587 74.9895C251.386 78.2405 257.014 79.866 264.469 79.866C266.857 79.866 269.264 79.5951 271.688 79.0533C274.113 78.5114 276.284 77.6264 278.202 76.3983C280.12 75.1701 281.677 73.5808 282.871 71.6302C284.065 69.6796 284.662 67.2956 284.662 64.4781C284.662 61.805 284.137 59.6377 283.088 57.9761C282.038 56.3145 280.663 54.9419 278.962 53.8582C277.261 52.7745 275.343 51.9257 273.208 51.3116C271.073 50.6975 268.92 50.1015 266.749 49.5236C263.709 48.7289 261.049 48.0426 258.769 47.4646C256.489 46.8867 254.372 46.2004 252.418 45.4057C250.536 44.611 249.034 43.4732 247.912 41.9921C246.79 40.5111 246.229 38.398 246.229 35.6527C246.229 35.147 246.374 34.244 246.664 32.9436C246.953 31.6432 247.641 30.3248 248.726 28.9882C249.812 27.6517 251.477 26.4597 253.721 25.4122C255.964 24.3646 259.04 23.8409 262.949 23.8409C265.627 23.8409 268.069 24.1298 270.277 24.7078C272.485 25.2858 274.384 26.2069 275.977 27.4711C277.569 28.7354 278.8 30.3428 279.668 32.2934C280.537 34.244 280.971 36.628 280.971 39.4455ZM331.237 39.4455H333.409C333.409 33.2325 331.599 28.7173 327.98 25.8998C324.361 23.0823 319.44 21.6736 313.215 21.6736C309.741 21.6736 306.81 22.107 304.421 22.9739C302.033 23.8409 300.079 24.9606 298.559 26.3333C297.039 27.7059 295.953 29.223 295.302 30.8846C294.65 32.5463 294.325 34.1356 294.325 35.6527C294.325 38.687 294.867 41.1071 295.953 42.9133C297.039 44.7194 298.74 46.1281 301.056 47.1395C302.648 47.862 304.457 48.5122 306.484 49.0901C308.511 49.6681 310.863 50.2821 313.541 50.9323C315.929 51.5103 318.282 52.0882 320.598 52.6662C322.914 53.2441 324.959 54.0207 326.732 54.996C328.505 55.9713 329.953 57.2175 331.074 58.7347C332.196 60.2518 332.757 62.2385 332.757 64.6948C332.757 67.0788 332.196 69.1017 331.074 70.7633C329.953 72.4249 328.523 73.7794 326.786 74.827C325.049 75.8745 323.113 76.6331 320.978 77.1027C318.843 77.5723 316.762 77.807 314.735 77.807C308.149 77.807 303.1 76.3441 299.59 73.4182C296.08 70.4923 294.325 65.8868 294.325 59.6016H292.153C292.153 66.6093 294.053 71.7385 297.853 74.9895C301.653 78.2405 307.28 79.866 314.735 79.866C317.124 79.866 319.53 79.5951 321.955 79.0533C324.379 78.5114 326.551 77.6264 328.469 76.3983C330.387 75.1701 331.943 73.5808 333.137 71.6302C334.331 69.6796 334.929 67.2956 334.929 64.4781C334.929 61.805 334.404 59.6377 333.354 57.9761C332.305 56.3145 330.93 54.9419 329.229 53.8582C327.528 52.7745 325.61 51.9257 323.475 51.3116C321.34 50.6975 319.186 50.1015 317.015 49.5236C313.975 48.7289 311.315 48.0426 309.035 47.4646C306.755 46.8867 304.638 46.2004 302.684 45.4057C300.802 44.611 299.301 43.4732 298.179 41.9921C297.057 40.5111 296.496 38.398 296.496 35.6527C296.496 35.147 296.641 34.244 296.93 32.9436C297.22 31.6432 297.907 30.3248 298.993 28.9882C300.079 27.6517 301.743 26.4597 303.987 25.4122C306.231 24.3646 309.307 23.8409 313.215 23.8409C315.893 23.8409 318.336 24.1298 320.543 24.7078C322.751 25.2858 324.651 26.2069 326.243 27.4711C327.836 28.7354 329.066 30.3428 329.934 32.2934C330.803 34.244 331.237 36.628 331.237 39.4455Z" fill="#ffffff"/>
</g>
<defs>
<clipPath id="clip0_53_1491">
<rect width="101" height="80" fill="#ffffff"/>
</clipPath>
</defs>
</svg>
