<svg width="122.88" height="121.63" xmlns="http://www.w3.org/2000/svg" data-name="Layer 1">

 <title>security</title>
 <g>
  <title>Layer 1</title>
  <path fill="#0e75bb" id="svg_1" fill-rule="evenodd" d="m55.15,0a150.86,150.86 0 0 0 18.39,10.06a33.21,33.21 0 0 0 -4.38,7.21a142.57,142.57 0 0 1 -14,-7.86c-13.69,10.64 -29.44,15.93 -46.63,15c-1.3,49.52 17.19,77 46.81,87.78c21.19,-8 36.46,-24.12 43.11,-48.78l0.76,0a32.63,32.63 0 0 0 7.51,-0.87c-7.52,30.05 -25.51,49.31 -51.38,59.06c-35.7,-13.01 -56.83,-44.95 -55.26,-104.6c18.78,1 37.21,-3.08 55.07,-16.95l0,-0.05z" class="cls-1"/>
  <path fill="#0e75bb" id="svg_2" fill-rule="evenodd" d="m40.3,53.09l1.5,0l0,-3.31a14.28,14.28 0 0 1 3.94,-9.88a13.13,13.13 0 0 1 19.18,0a14.25,14.25 0 0 1 4,9.88l0,3.31l1.49,0a2.21,2.21 0 0 1 2.21,2.21l0,23.35a2.22,2.22 0 0 1 -2.21,2.21l-30.11,0a2.22,2.22 0 0 1 -2.21,-2.21l0,-23.35a2.21,2.21 0 0 1 2.21,-2.21zm5.68,0l18.71,0l0,-3.31a10.07,10.07 0 0 0 -2.77,-7a9,9 0 0 0 -13.17,0a10.07,10.07 0 0 0 -2.77,7l0,3.31zm7.54,14.91l-2.38,6.25l8.39,0l-2.21,-6.34a4.34,4.34 0 1 0 -3.8,0.09z" class="cls-1"/>
  <path id="svg_3" fill="#288e00" fill-rule="evenodd" d="m99.23,6.92a23.65,23.65 0 1 1 -23.65,23.65a23.65,23.65 0 0 1 23.65,-23.65zm-5.44,23.08a18.48,18.48 0 0 1 1.91,1.85a75.71,75.71 0 0 1 6,-8.31c6,-7.18 3.25,-5.79 11.5,-5.79l-1.2,1.3a80,80 0 0 0 -7.59,10.12a118.45,118.45 0 0 0 -7.77,12.91l-0.71,1.38l-0.66,-1.4a34,34 0 0 0 -4.39,-7.12a24.22,24.22 0 0 0 -5.58,-5.13c1.07,-3.53 6.19,-1.72 8.48,0.22l0.01,-0.03z" class="cls-2"/>
 </g>
</svg>